<?xml version="1.0" encoding="UTF-8" standalone="no"?> <svg width="512" height="512" viewBox="0 0 512 512" fill="none" xmlns="http://www.w3.org/2000/svg">
<path fill-rule="evenodd" clip-rule="evenodd" d="M128 24C70.5624 24 24 70.5624 24 128V384C24 441.438 70.5624 488 128 488H384C441.438 488 488 441.438 488 384V128C488 70.5624 441.438 24 384 24H128ZM40 128C40 79.3989 79.3989 40 128 40H384C432.601 40 472 79.3989 472 128V384C472 432.601 432.601 472 384 472H128C79.3989 472 40 432.601 40 384V128ZM160 100C144.536 100 132 112.536 132 128C132 143.464 144.536 156 160 156H324V384C324 399.464 336.536 412 352 412C367.464 412 380 399.464 380 384V144C380 119.699 360.301 100 336 100H160ZM148 128C148 121.373 153.373 116 160 116H336C351.464 116 364 128.536 364 144V384C364 390.627 358.627 396 352 396C345.373 396 340 390.627 340 384V148C340 143.582 336.418 140 332 140H160C153.373 140 148 134.627 148 128Z" fill="#220358 "/>
</svg>
