<svg data-v-423bf9ae="" xmlns="http://www.w3.org/2000/svg" viewBox="0 0 357 90" class="iconLeft"><!----><!----><!----><g data-v-423bf9ae="" id="601fba43-3fea-43ea-ac08-0c46d0d93725" fill="#ffffff" transform="matrix(4.86988307477194,0,0,4.86988307477194,121.38458038266918,1.6078210675400086)"><path d="M1.82 3.08L5.94 3.08L5.94 3.08Q6.25 3.08 6.52 3.21L6.52 3.21L6.52 3.21Q6.79 3.33 7 3.54L7 3.54L7 3.54Q7.21 3.75 7.32 4.02L7.32 4.02L7.32 4.02Q7.44 4.30 7.44 4.61L7.44 4.61L7.44 6.42L7.44 6.42Q7.44 6.73 7.32 7.01L7.32 7.01L7.32 7.01Q7.21 7.29 7 7.50L7 7.50L7 7.50Q6.79 7.70 6.52 7.83L6.52 7.83L6.52 7.83Q6.24 7.95 5.93 7.95L5.93 7.95L2.58 7.95L2.58 11.22L2.58 11.22Q2.58 11.66 2.51 11.97L2.51 11.97L2.51 11.97Q2.44 12.27 2.27 12.46L2.27 12.46L2.27 12.46Q2.09 12.64 1.79 12.72L1.79 12.72L1.79 12.72Q1.50 12.80 1.05 12.80L1.05 12.80L1.05 3.99L1.05 3.99Q1.05 3.65 1.06 3.47L1.06 3.47L1.06 3.47Q1.07 3.28 1.15 3.20L1.15 3.20L1.15 3.20Q1.22 3.11 1.37 3.10L1.37 3.10L1.37 3.10Q1.53 3.08 1.82 3.08L1.82 3.08ZM4.38 3.43L2.58 3.43L2.58 7.60L4.38 7.60L4.38 7.60Q4.80 7.60 5.10 7.53L5.10 7.53L5.10 7.53Q5.39 7.45 5.58 7.27L5.58 7.27L5.58 7.27Q5.77 7.10 5.85 6.81L5.85 6.81L5.85 6.81Q5.94 6.51 5.94 6.09L5.94 6.09L5.94 4.96L5.94 4.96Q5.94 4.53 5.85 4.23L5.85 4.23L5.85 4.23Q5.77 3.94 5.58 3.77L5.58 3.77L5.58 3.77Q5.39 3.59 5.10 3.51L5.10 3.51L5.10 3.51Q4.80 3.43 4.38 3.43L4.38 3.43ZM8.11 5.27L8.11 5.27L8.75 5.27L8.75 5.27Q9.15 5.27 9.42 5.34L9.42 5.34L9.42 5.34Q9.69 5.41 9.88 5.55L9.88 5.55L9.88 5.55Q10.07 5.70 10.20 5.93L10.20 5.93L10.20 5.93Q10.33 6.16 10.43 6.49L10.43 6.49L11.96 11.28L13.79 5.60L13.79 5.60Q13.86 5.39 13.95 5.33L13.95 5.33L13.95 5.33Q14.03 5.27 14.20 5.27L14.20 5.27L14.60 5.27L14.60 5.27Q14.63 5.27 14.63 5.28L14.63 5.28L14.63 5.28Q14.63 5.29 14.60 5.29L14.60 5.29L14.60 5.29Q14.40 5.29 14.31 5.38L14.31 5.38L14.31 5.38Q14.21 5.48 14.14 5.67L14.14 5.67L11.54 13.90L11.54 13.90Q11.44 14.25 11.30 14.48L11.30 14.48L11.30 14.48Q11.16 14.71 10.99 14.84L10.99 14.84L10.99 14.84Q10.82 14.97 10.63 15.02L10.63 15.02L10.63 15.02Q10.44 15.07 10.25 15.07L10.25 15.07L10.10 15.07L10.10 15.07Q9.60 15.08 9.29 14.93L9.29 14.93L9.29 14.93Q8.99 14.78 8.83 14.55L8.83 14.55L8.83 14.55Q8.67 14.32 8.62 14.05L8.62 14.05L8.62 14.05Q8.57 13.78 8.56 13.56L8.56 13.56L8.56 13.56Q8.65 13.56 8.72 13.56L8.72 13.56L8.72 13.56Q8.79 13.57 8.84 13.61L8.84 13.61L8.84 13.61Q8.88 13.64 8.91 13.72L8.91 13.72L8.91 13.72Q8.94 13.79 8.96 13.92L8.96 13.92L8.96 13.92Q9.06 14.34 9.35 14.54L9.35 14.54L9.35 14.54Q9.64 14.75 10.23 14.72L10.23 14.72L10.23 14.72Q10.66 14.72 10.91 14.37L10.91 14.37L10.91 14.37Q11.16 14.02 11.32 13.42L11.32 13.42L11.48 12.88L11.48 12.88Q11.38 12.84 11.27 12.77L11.27 12.77L11.27 12.77Q11.15 12.69 11.04 12.58L11.04 12.58L11.04 12.58Q10.92 12.46 10.82 12.29L10.82 12.29L10.82 12.29Q10.73 12.11 10.64 11.87L10.64 11.87L8.74 5.90L8.74 5.90Q8.69 5.75 8.64 5.64L8.64 5.64L8.64 5.64Q8.59 5.52 8.53 5.44L8.53 5.44L8.53 5.44Q8.46 5.37 8.36 5.33L8.36 5.33L8.36 5.33Q8.26 5.29 8.11 5.29L8.11 5.29L8.11 5.29Q8.09 5.29 8.09 5.28L8.09 5.28L8.09 5.28Q8.09 5.27 8.11 5.27ZM19.44 7.30L19.02 7.30L19.02 7.30Q18.98 7.01 18.87 6.72L18.87 6.72L18.87 6.72Q18.76 6.43 18.60 6.20L18.60 6.20L18.60 6.20Q18.44 5.97 18.21 5.83L18.21 5.83L18.21 5.83Q17.99 5.69 17.70 5.69L17.70 5.69L17.70 5.69Q17.29 5.69 17.08 5.99L17.08 5.99L17.08 5.99Q16.86 6.28 16.86 6.73L16.86 6.73L16.86 11.21L16.86 11.21Q16.86 11.66 16.79 11.96L16.79 11.96L16.79 11.96Q16.71 12.26 16.54 12.45L16.54 12.45L16.54 12.45Q16.37 12.64 16.06 12.72L16.06 12.72L16.06 12.72Q15.76 12.80 15.31 12.80L15.31 12.80L15.31 6.90L15.31 6.90Q15.31 6.45 15.39 6.13L15.39 6.13L15.39 6.13Q15.48 5.82 15.66 5.63L15.66 5.63L15.66 5.63Q15.84 5.43 16.13 5.35L16.13 5.35L16.13 5.35Q16.43 5.27 16.86 5.27L16.86 5.27L18.30 5.27L18.30 5.27Q18.66 5.27 18.87 5.39L18.87 5.39L18.87 5.39Q19.09 5.50 19.22 5.70L19.22 5.70L19.22 5.70Q19.35 5.90 19.39 6.17L19.39 6.17L19.39 6.17Q19.43 6.43 19.44 6.73L19.44 6.73L19.44 7.30ZM21.98 7.79L24.58 7.79L24.58 7.14L24.58 7.14Q24.58 6.32 24.19 5.97L24.19 5.97L24.19 5.97Q23.80 5.63 22.99 5.63L22.99 5.63L22.99 5.63Q22.59 5.63 22.30 5.70L22.30 5.70L22.30 5.70Q22.02 5.78 21.84 5.96L21.84 5.96L21.84 5.96Q21.66 6.15 21.58 6.43L21.58 6.43L21.58 6.43Q21.51 6.72 21.51 7.14L21.51 7.14L21.51 7.30L21.11 7.30L21.11 6.18L21.11 6.18Q21.11 5.87 21.13 5.69L21.13 5.69L21.13 5.69Q21.15 5.51 21.23 5.42L21.23 5.42L21.23 5.42Q21.31 5.33 21.48 5.31L21.48 5.31L21.48 5.31Q21.64 5.28 21.92 5.28L21.92 5.28L24.58 5.28L24.58 5.28Q24.86 5.28 25.13 5.42L25.13 5.42L25.13 5.42Q25.40 5.55 25.62 5.77L25.62 5.77L25.62 5.77Q25.83 5.98 25.96 6.25L25.96 6.25L25.96 6.25Q26.09 6.53 26.09 6.81L26.09 6.81L26.09 11.27L26.09 11.27Q26.09 11.58 25.97 11.85L25.97 11.85L25.97 11.85Q25.85 12.12 25.63 12.33L25.63 12.33L25.63 12.33Q25.42 12.53 25.15 12.66L25.15 12.66L25.15 12.66Q24.88 12.78 24.58 12.80L24.58 12.80L21.98 12.80L21.98 12.80Q21.66 12.80 21.39 12.68L21.39 12.68L21.39 12.68Q21.12 12.56 20.91 12.36L20.91 12.36L20.91 12.36Q20.71 12.15 20.59 11.87L20.59 11.87L20.59 11.87Q20.47 11.59 20.47 11.27L20.47 11.27L20.47 9.31L20.47 9.31Q20.47 9.00 20.59 8.72L20.59 8.72L20.59 8.72Q20.71 8.44 20.91 8.23L20.91 8.23L20.91 8.23Q21.12 8.03 21.39 7.91L21.39 7.91L21.39 7.91Q21.66 7.79 21.98 7.79L21.98 7.79ZM24.58 10.94L24.58 8.13L23.54 8.13L23.54 8.13Q23.11 8.13 22.81 8.21L22.81 8.21L22.81 8.21Q22.51 8.29 22.33 8.46L22.33 8.46L22.33 8.46Q22.14 8.64 22.06 8.93L22.06 8.93L22.06 8.93Q21.98 9.22 21.98 9.64L21.98 9.64L21.98 10.94L21.98 10.94Q21.98 11.33 22.05 11.60L22.05 11.60L22.05 11.60Q22.11 11.87 22.26 12.06L22.26 12.06L22.26 12.06Q22.42 12.24 22.66 12.33L22.66 12.33L22.66 12.33Q22.90 12.43 23.25 12.46L23.25 12.46L23.25 12.46Q23.62 12.43 23.87 12.34L23.87 12.34L23.87 12.34Q24.12 12.25 24.28 12.07L24.28 12.07L24.28 12.07Q24.45 11.89 24.51 11.61L24.51 11.61L24.51 11.61Q24.58 11.33 24.58 10.94L24.58 10.94ZM36.03 5.27L36.03 5.27L36.03 5.27Q36.33 5.27 36.61 5.39L36.61 5.39L36.61 5.39Q36.89 5.51 37.11 5.72L37.11 5.72L37.11 5.72Q37.32 5.93 37.44 6.21L37.44 6.21L37.44 6.21Q37.57 6.49 37.57 6.80L37.57 6.80L37.57 11.20L37.57 11.20Q37.57 11.65 37.50 11.96L37.50 11.96L37.50 11.96Q37.43 12.26 37.25 12.45L37.25 12.45L37.25 12.45Q37.08 12.64 36.78 12.72L36.78 12.72L36.78 12.72Q36.48 12.80 36.03 12.80L36.03 12.80L36.03 7.13L36.03 7.13Q36.03 6.34 35.72 5.98L35.72 5.98L35.72 5.98Q35.42 5.62 34.75 5.62L34.75 5.62L33.48 5.62L33.48 11.20L33.48 11.20Q33.48 11.56 33.43 11.83L33.43 11.83L33.43 11.83Q33.39 12.09 33.28 12.28L33.28 12.28L33.28 12.28Q33.17 12.47 32.99 12.58L32.99 12.58L32.99 12.58Q32.81 12.70 32.55 12.76L32.55 12.76L32.55 12.76Q32.37 12.79 32.09 12.80L32.09 12.80L31.92 12.80L31.92 7.05L31.92 7.05Q31.91 6.31 31.60 5.96L31.60 5.96L31.60 5.96Q31.29 5.62 30.65 5.62L30.65 5.62L29.38 5.62L29.38 11.20L29.38 11.20Q29.38 11.65 29.31 11.96L29.31 11.96L29.31 11.96Q29.24 12.26 29.06 12.45L29.06 12.45L29.06 12.45Q28.88 12.64 28.57 12.72L28.57 12.72L28.57 12.72Q28.27 12.80 27.82 12.80L27.82 12.80L27.82 5.27L36.03 5.27ZM40.04 2.75L40.04 2.75L40.04 2.75Q40.22 2.75 40.37 2.82L40.37 2.82L40.37 2.82Q40.53 2.89 40.65 3.01L40.65 3.01L40.65 3.01Q40.76 3.12 40.83 3.28L40.83 3.28L40.83 3.28Q40.90 3.44 40.90 3.62L40.90 3.62L40.90 3.62Q40.90 3.79 40.83 3.95L40.83 3.95L40.83 3.95Q40.76 4.12 40.65 4.23L40.65 4.23L40.65 4.23Q40.53 4.35 40.37 4.43L40.37 4.43L40.37 4.43Q40.22 4.50 40.04 4.50L40.04 4.50L40.04 4.50Q39.87 4.50 39.71 4.43L39.71 4.43L39.71 4.43Q39.55 4.35 39.43 4.23L39.43 4.23L39.43 4.23Q39.31 4.12 39.24 3.95L39.24 3.95L39.24 3.95Q39.17 3.79 39.17 3.62L39.17 3.62L39.17 3.62Q39.17 3.45 39.24 3.29L39.24 3.29L39.24 3.29Q39.31 3.13 39.43 3.01L39.43 3.01L39.43 3.01Q39.55 2.89 39.71 2.82L39.71 2.82L39.71 2.82Q39.87 2.75 40.04 2.75ZM40.80 5.15L40.80 11.22L40.80 11.22Q40.80 11.66 40.73 11.97L40.73 11.97L40.73 11.97Q40.66 12.27 40.49 12.46L40.49 12.46L40.49 12.46Q40.31 12.64 40.01 12.72L40.01 12.72L40.01 12.72Q39.72 12.80 39.27 12.80L39.27 12.80L39.27 6.78L39.27 6.78Q39.27 6.32 39.35 6.01L39.35 6.01L39.35 6.01Q39.43 5.70 39.61 5.51L39.61 5.51L39.61 5.51Q39.79 5.32 40.09 5.23L40.09 5.23L40.09 5.23Q40.38 5.15 40.80 5.15L40.80 5.15ZM46.63 10.94L46.63 5.61L45.60 5.61L45.60 5.61Q45.17 5.61 44.88 5.69L44.88 5.69L44.88 5.69Q44.58 5.76 44.40 5.94L44.40 5.94L44.40 5.94Q44.22 6.12 44.14 6.41L44.14 6.41L44.14 6.41Q44.06 6.70 44.06 7.12L44.06 7.12L44.06 10.94L44.06 10.94Q44.06 11.33 44.13 11.61L44.13 11.61L44.13 11.61Q44.20 11.89 44.35 12.08L44.35 12.08L44.35 12.08Q44.50 12.27 44.75 12.36L44.75 12.36L44.75 12.36Q44.99 12.46 45.35 12.46L45.35 12.46L45.35 12.46Q46.05 12.46 46.34 12.09L46.34 12.09L46.34 12.09Q46.63 11.72 46.63 10.94L46.63 10.94ZM46.63 12.80L44.06 12.80L44.06 12.80Q43.76 12.80 43.49 12.70L43.49 12.70L43.49 12.70Q43.22 12.59 43.00 12.41L43.00 12.41L43.00 12.41Q42.79 12.22 42.67 11.97L42.67 11.97L42.67 11.97Q42.54 11.71 42.54 11.41L42.54 11.41L42.54 6.79L42.54 6.79Q42.54 6.48 42.66 6.20L42.66 6.20L42.66 6.20Q42.78 5.92 42.99 5.71L42.99 5.71L42.99 5.71Q43.20 5.51 43.47 5.39L43.47 5.39L43.47 5.39Q43.75 5.27 44.06 5.27L44.06 5.27L46.63 5.27L46.63 4.58L46.63 4.58Q46.63 4.12 46.71 3.81L46.71 3.81L46.71 3.81Q46.79 3.49 46.97 3.30L46.97 3.30L46.97 3.30Q47.15 3.11 47.45 3.03L47.45 3.03L47.45 3.03Q47.75 2.95 48.18 2.95L48.18 2.95L48.18 11.41L48.18 11.41Q48.18 11.79 48.08 12.05L48.08 12.05L48.08 12.05Q47.97 12.31 47.78 12.48L47.78 12.48L47.78 12.48Q47.58 12.64 47.29 12.72L47.29 12.72L47.29 12.72Q47.00 12.80 46.63 12.80L46.63 12.80Z"></path></g><!----><g data-v-423bf9ae="" id="2186098a-4e56-40e7-81ca-c7292d6647db" transform="matrix(1.2531677156933536,0,0,1.2531677156933536,-9.123937199398426,-17.724855952006806)" stroke="none" fill="#ffffff"><path d="M48.492 15.497L37.483 86.1 7.406 64.499l41.086-49.002zm-9.096 71.034l11.2-71.818 41.793 59.133-52.993 12.685z"></path></g><!----></svg>