<?xml version="1.0" encoding="UTF-8" standalone="no"?> <svg width="512" height="512" viewBox="0 0 512 512" fill="none" xmlns="http://www.w3.org/2000/svg">
<path fill-rule="evenodd" clip-rule="evenodd" d="M128 32C74.9807 32 32 74.9807 32 128V384C32 437.019 74.9807 480 128 480H384C437.019 480 480 437.019 480 384V128C480 74.9807 437.019 32 384 32H128ZM180 128C180 116.954 171.046 108 160 108C148.954 108 140 116.954 140 128V240C140 259.882 156.118 276 176 276H332V384C332 395.046 340.954 404 352 404C363.046 404 372 395.046 372 384V128C372 116.954 363.046 108 352 108C340.954 108 332 116.954 332 128V236H180V128Z" fill="#d946a8"/>
</svg>
