<?xml version="1.0" encoding="UTF-8" standalone="no"?> <svg width="512" height="512" viewBox="0 0 512 512" fill="none" xmlns="http://www.w3.org/2000/svg">
<path fill-rule="evenodd" clip-rule="evenodd" d="M128 32C74.9807 32 32 74.9807 32 128V384C32 437.019 74.9807 480 128 480H384C437.019 480 480 437.019 480 384V128C480 74.9807 437.019 32 384 32H128ZM160 108C148.954 108 140 116.954 140 128C140 139.046 148.954 148 160 148H332V236H160C148.954 236 140 244.954 140 256C140 267.046 148.954 276 160 276H332V364H160C148.954 364 140 372.954 140 384C140 395.046 148.954 404 160 404H336C355.882 404 372 387.882 372 368V144C372 124.118 355.882 108 336 108H160Z" fill="#d946a8"/>
</svg>
